# xmcd CD database file
#
# Track frame offsets:
#	150
#	18003
#	35652
#	50998
#	69369
#	89424
#	111991
#	129403
#	144827
#	163940
#	184749
#	201448
#	218020
#
# Disc length: 3248 seconds
#
# Revision: 2
# Processed by: cddbd v1.5.1PL2 Copyright (c) Steve Scherf et al.
# Submitted via: CDex 1.51
#
DISCID=bd0cae0d
DTITLE=MR.BIG - HITS HARD ROCK 2
DYEAR=1996
DGENRE=Rock
TTITLE0=MR.BIG/???,????,???,???????
TTITLE1=??????????/?????????
TTITLE2=??????????/??????
TTITLE3=???????/?????
TTITLE4=????/?????????
TTITLE5=???????????/??????????????
TTITLE6=???????/??????????????
TTITLE7=???/??????????
TTITLE8=???????/???????
TTITLE9=????????/???
TTITLE10=????/????????????
TTITLE11=???????????/???????????????????
TTITLE12=?????????/???????????????
EXTD=YEAR: 1996
EXTT0=
EXTT1=
EXTT2=
EXTT3=
EXTT4=
EXTT5=
EXTT6=
EXTT7=
EXTT8=
EXTT9=
EXTT10=
EXTT11=
EXTT12=
PLAYORDER=
